<mxfile host="app.diagrams.net" agent="Mozilla/5.0 (Windows NT 10.0; Win64; x64) AppleWebKit/537.36 (KHTML, like Gecko) Chrome/140.0.0.0 Safari/537.36" version="28.2.7">
  <diagram name="Halaman-1" id="3Vks563X94P16xQGp0TS">
    <mxGraphModel dx="2864" dy="1176" grid="1" gridSize="10" guides="1" tooltips="1" connect="1" arrows="1" fold="1" page="1" pageScale="1" pageWidth="827" pageHeight="1169" math="0" shadow="0">
      <root>
        <mxCell id="0" />
        <mxCell id="1" parent="0" />
        <mxCell id="gog5IfXXjKf4Umav9ZKO-1" value="&lt;font style=&quot;font-size: 36px;&quot;&gt;&lt;b&gt;Nusantara Rent&lt;/b&gt;&lt;/font&gt;" style="text;html=1;whiteSpace=wrap;strokeColor=none;fillColor=none;align=center;verticalAlign=middle;rounded=0;" vertex="1" parent="1">
          <mxGeometry x="264" y="20" width="300" height="70" as="geometry" />
        </mxCell>
        <mxCell id="gog5IfXXjKf4Umav9ZKO-2" value="Cabang" style="rounded=0;whiteSpace=wrap;html=1;" vertex="1" parent="1">
          <mxGeometry x="110" y="180" width="120" height="60" as="geometry" />
        </mxCell>
        <mxCell id="gog5IfXXjKf4Umav9ZKO-7" value="Nama_Cabang" style="ellipse;whiteSpace=wrap;html=1;" vertex="1" parent="1">
          <mxGeometry x="-30" y="185" width="90" height="50" as="geometry" />
        </mxCell>
        <mxCell id="gog5IfXXjKf4Umav9ZKO-8" value="Alamat" style="ellipse;whiteSpace=wrap;html=1;" vertex="1" parent="1">
          <mxGeometry x="-5" y="240" width="90" height="50" as="geometry" />
        </mxCell>
        <mxCell id="gog5IfXXjKf4Umav9ZKO-10" value="" style="endArrow=none;html=1;rounded=0;entryX=0;entryY=0.5;entryDx=0;entryDy=0;exitX=1;exitY=0.5;exitDx=0;exitDy=0;" edge="1" parent="1" source="gog5IfXXjKf4Umav9ZKO-14" target="gog5IfXXjKf4Umav9ZKO-2">
          <mxGeometry width="50" height="50" relative="1" as="geometry">
            <mxPoint x="80" y="145" as="sourcePoint" />
            <mxPoint x="140" y="360" as="targetPoint" />
          </mxGeometry>
        </mxCell>
        <mxCell id="gog5IfXXjKf4Umav9ZKO-11" value="" style="endArrow=none;html=1;rounded=0;entryX=0;entryY=0.5;entryDx=0;entryDy=0;exitX=1.009;exitY=0.459;exitDx=0;exitDy=0;exitPerimeter=0;" edge="1" parent="1" source="gog5IfXXjKf4Umav9ZKO-8" target="gog5IfXXjKf4Umav9ZKO-2">
          <mxGeometry width="50" height="50" relative="1" as="geometry">
            <mxPoint x="90" y="175" as="sourcePoint" />
            <mxPoint x="120" y="220" as="targetPoint" />
          </mxGeometry>
        </mxCell>
        <mxCell id="gog5IfXXjKf4Umav9ZKO-12" value="" style="endArrow=none;html=1;rounded=0;entryX=0;entryY=0.5;entryDx=0;entryDy=0;exitX=1;exitY=0.5;exitDx=0;exitDy=0;" edge="1" parent="1" source="gog5IfXXjKf4Umav9ZKO-7" target="gog5IfXXjKf4Umav9ZKO-2">
          <mxGeometry width="50" height="50" relative="1" as="geometry">
            <mxPoint x="100" y="185" as="sourcePoint" />
            <mxPoint x="130" y="230" as="targetPoint" />
          </mxGeometry>
        </mxCell>
        <mxCell id="gog5IfXXjKf4Umav9ZKO-14" value="ID_Cabang" style="ellipse;whiteSpace=wrap;html=1;align=center;fontStyle=4;" vertex="1" parent="1">
          <mxGeometry x="-15" y="140" width="100" height="40" as="geometry" />
        </mxCell>
        <mxCell id="gog5IfXXjKf4Umav9ZKO-15" value="Mobil" style="rounded=0;whiteSpace=wrap;html=1;" vertex="1" parent="1">
          <mxGeometry x="110" y="530" width="120" height="60" as="geometry" />
        </mxCell>
        <mxCell id="gog5IfXXjKf4Umav9ZKO-16" value="Merek" style="ellipse;whiteSpace=wrap;html=1;" vertex="1" parent="1">
          <mxGeometry x="-63" y="380" width="90" height="50" as="geometry" />
        </mxCell>
        <mxCell id="gog5IfXXjKf4Umav9ZKO-17" value="Model" style="ellipse;whiteSpace=wrap;html=1;" vertex="1" parent="1">
          <mxGeometry x="-94" y="430" width="90" height="50" as="geometry" />
        </mxCell>
        <mxCell id="gog5IfXXjKf4Umav9ZKO-18" value="" style="endArrow=none;html=1;rounded=0;entryX=0;entryY=0.5;entryDx=0;entryDy=0;exitX=1;exitY=0.5;exitDx=0;exitDy=0;" edge="1" source="gog5IfXXjKf4Umav9ZKO-21" target="gog5IfXXjKf4Umav9ZKO-15" parent="1">
          <mxGeometry width="50" height="50" relative="1" as="geometry">
            <mxPoint x="70" y="455" as="sourcePoint" />
            <mxPoint x="100" y="520" as="targetPoint" />
          </mxGeometry>
        </mxCell>
        <mxCell id="gog5IfXXjKf4Umav9ZKO-19" value="" style="endArrow=none;html=1;rounded=0;entryX=0;entryY=0.5;entryDx=0;entryDy=0;exitX=1.009;exitY=0.459;exitDx=0;exitDy=0;exitPerimeter=0;" edge="1" source="gog5IfXXjKf4Umav9ZKO-17" target="gog5IfXXjKf4Umav9ZKO-15" parent="1">
          <mxGeometry width="50" height="50" relative="1" as="geometry">
            <mxPoint x="80" y="485" as="sourcePoint" />
            <mxPoint x="100" y="520" as="targetPoint" />
          </mxGeometry>
        </mxCell>
        <mxCell id="gog5IfXXjKf4Umav9ZKO-20" value="" style="endArrow=none;html=1;rounded=0;exitX=1;exitY=0.5;exitDx=0;exitDy=0;entryX=0;entryY=0.5;entryDx=0;entryDy=0;" edge="1" source="gog5IfXXjKf4Umav9ZKO-16" target="gog5IfXXjKf4Umav9ZKO-15" parent="1">
          <mxGeometry width="50" height="50" relative="1" as="geometry">
            <mxPoint x="90" y="495" as="sourcePoint" />
            <mxPoint x="116" y="560" as="targetPoint" />
            <Array as="points">
              <mxPoint x="86" y="510" />
            </Array>
          </mxGeometry>
        </mxCell>
        <mxCell id="gog5IfXXjKf4Umav9ZKO-21" value="&lt;span data-end=&quot;311&quot; data-start=&quot;298&quot;&gt;No_Polisi&lt;/span&gt;" style="ellipse;whiteSpace=wrap;html=1;align=center;fontStyle=4;" vertex="1" parent="1">
          <mxGeometry x="-32" y="340" width="100" height="40" as="geometry" />
        </mxCell>
        <mxCell id="gog5IfXXjKf4Umav9ZKO-23" value="ID_Cabang [FK]" style="ellipse;whiteSpace=wrap;html=1;" vertex="1" parent="1">
          <mxGeometry x="3" y="720" width="90" height="50" as="geometry" />
        </mxCell>
        <mxCell id="gog5IfXXjKf4Umav9ZKO-24" value="Harga_Sewa_Per_Hari" style="ellipse;whiteSpace=wrap;html=1;" vertex="1" parent="1">
          <mxGeometry x="-122" y="600" width="146" height="50" as="geometry" />
        </mxCell>
        <mxCell id="gog5IfXXjKf4Umav9ZKO-25" value="Status_Sewa" style="ellipse;whiteSpace=wrap;html=1;" vertex="1" parent="1">
          <mxGeometry x="-57" y="660" width="90" height="50" as="geometry" />
        </mxCell>
        <mxCell id="gog5IfXXjKf4Umav9ZKO-26" value="Warna" style="ellipse;whiteSpace=wrap;html=1;" vertex="1" parent="1">
          <mxGeometry x="-94" y="540" width="90" height="50" as="geometry" />
        </mxCell>
        <mxCell id="gog5IfXXjKf4Umav9ZKO-27" value="Tahun_Pembuatan" style="ellipse;whiteSpace=wrap;html=1;" vertex="1" parent="1">
          <mxGeometry x="-107" y="480" width="116" height="50" as="geometry" />
        </mxCell>
        <mxCell id="gog5IfXXjKf4Umav9ZKO-33" value="" style="endArrow=none;html=1;rounded=0;entryX=0;entryY=0.5;entryDx=0;entryDy=0;exitX=1;exitY=0.5;exitDx=0;exitDy=0;" edge="1" parent="1" source="gog5IfXXjKf4Umav9ZKO-27" target="gog5IfXXjKf4Umav9ZKO-15">
          <mxGeometry width="50" height="50" relative="1" as="geometry">
            <mxPoint x="7" y="463" as="sourcePoint" />
            <mxPoint x="120" y="570" as="targetPoint" />
          </mxGeometry>
        </mxCell>
        <mxCell id="gog5IfXXjKf4Umav9ZKO-34" value="" style="endArrow=none;html=1;rounded=0;exitX=1;exitY=0.5;exitDx=0;exitDy=0;exitPerimeter=0;entryX=-0.002;entryY=0.467;entryDx=0;entryDy=0;entryPerimeter=0;" edge="1" parent="1" source="gog5IfXXjKf4Umav9ZKO-26" target="gog5IfXXjKf4Umav9ZKO-15">
          <mxGeometry width="50" height="50" relative="1" as="geometry">
            <mxPoint x="19" y="515" as="sourcePoint" />
            <mxPoint x="106" y="560" as="targetPoint" />
          </mxGeometry>
        </mxCell>
        <mxCell id="gog5IfXXjKf4Umav9ZKO-35" value="" style="endArrow=none;html=1;rounded=0;exitX=0.999;exitY=0.464;exitDx=0;exitDy=0;exitPerimeter=0;entryX=0.012;entryY=0.483;entryDx=0;entryDy=0;entryPerimeter=0;" edge="1" parent="1" source="gog5IfXXjKf4Umav9ZKO-24" target="gog5IfXXjKf4Umav9ZKO-15">
          <mxGeometry width="50" height="50" relative="1" as="geometry">
            <mxPoint x="6" y="575" as="sourcePoint" />
            <mxPoint x="120" y="568" as="targetPoint" />
          </mxGeometry>
        </mxCell>
        <mxCell id="gog5IfXXjKf4Umav9ZKO-36" value="" style="endArrow=none;html=1;rounded=0;exitX=0.994;exitY=0.4;exitDx=0;exitDy=0;exitPerimeter=0;entryX=0.01;entryY=0.464;entryDx=0;entryDy=0;entryPerimeter=0;" edge="1" parent="1" source="gog5IfXXjKf4Umav9ZKO-25" target="gog5IfXXjKf4Umav9ZKO-15">
          <mxGeometry width="50" height="50" relative="1" as="geometry">
            <mxPoint x="62" y="633" as="sourcePoint" />
            <mxPoint x="121" y="569" as="targetPoint" />
          </mxGeometry>
        </mxCell>
        <mxCell id="gog5IfXXjKf4Umav9ZKO-37" value="" style="endArrow=none;html=1;rounded=0;exitX=1;exitY=0.5;exitDx=0;exitDy=0;entryX=-0.008;entryY=0.45;entryDx=0;entryDy=0;entryPerimeter=0;" edge="1" parent="1" source="gog5IfXXjKf4Umav9ZKO-23" target="gog5IfXXjKf4Umav9ZKO-15">
          <mxGeometry width="50" height="50" relative="1" as="geometry">
            <mxPoint x="49" y="690" as="sourcePoint" />
            <mxPoint x="121" y="568" as="targetPoint" />
          </mxGeometry>
        </mxCell>
        <mxCell id="gog5IfXXjKf4Umav9ZKO-42" value="Pelanggan" style="rounded=0;whiteSpace=wrap;html=1;" vertex="1" parent="1">
          <mxGeometry x="580" y="170" width="120" height="60" as="geometry" />
        </mxCell>
        <mxCell id="gog5IfXXjKf4Umav9ZKO-43" value="No_KTP [UQ]" style="ellipse;whiteSpace=wrap;html=1;" vertex="1" parent="1">
          <mxGeometry x="750" y="115" width="90" height="50" as="geometry" />
        </mxCell>
        <mxCell id="gog5IfXXjKf4Umav9ZKO-44" value="Nama_Lengkap" style="ellipse;whiteSpace=wrap;html=1;" vertex="1" parent="1">
          <mxGeometry x="765" y="175" width="90" height="50" as="geometry" />
        </mxCell>
        <mxCell id="gog5IfXXjKf4Umav9ZKO-45" value="" style="endArrow=none;html=1;rounded=0;entryX=1;entryY=0.5;entryDx=0;entryDy=0;exitX=0;exitY=0.5;exitDx=0;exitDy=0;" edge="1" source="gog5IfXXjKf4Umav9ZKO-48" target="gog5IfXXjKf4Umav9ZKO-42" parent="1">
          <mxGeometry width="50" height="50" relative="1" as="geometry">
            <mxPoint x="860" y="135" as="sourcePoint" />
            <mxPoint x="890" y="200" as="targetPoint" />
          </mxGeometry>
        </mxCell>
        <mxCell id="gog5IfXXjKf4Umav9ZKO-46" value="" style="endArrow=none;html=1;rounded=0;entryX=1;entryY=0.5;entryDx=0;entryDy=0;exitX=0.015;exitY=0.544;exitDx=0;exitDy=0;exitPerimeter=0;" edge="1" source="gog5IfXXjKf4Umav9ZKO-44" target="gog5IfXXjKf4Umav9ZKO-42" parent="1">
          <mxGeometry width="50" height="50" relative="1" as="geometry">
            <mxPoint x="870" y="165" as="sourcePoint" />
            <mxPoint x="890" y="200" as="targetPoint" />
          </mxGeometry>
        </mxCell>
        <mxCell id="gog5IfXXjKf4Umav9ZKO-47" value="" style="endArrow=none;html=1;rounded=0;entryX=1;entryY=0.5;entryDx=0;entryDy=0;exitX=-0.001;exitY=0.466;exitDx=0;exitDy=0;exitPerimeter=0;" edge="1" source="gog5IfXXjKf4Umav9ZKO-43" target="gog5IfXXjKf4Umav9ZKO-42" parent="1">
          <mxGeometry width="50" height="50" relative="1" as="geometry">
            <mxPoint x="750" y="200" as="sourcePoint" />
            <mxPoint x="890" y="200" as="targetPoint" />
          </mxGeometry>
        </mxCell>
        <mxCell id="gog5IfXXjKf4Umav9ZKO-48" value="ID_Pelanggan" style="ellipse;whiteSpace=wrap;html=1;align=center;fontStyle=4;" vertex="1" parent="1">
          <mxGeometry x="715" y="70" width="100" height="40" as="geometry" />
        </mxCell>
        <mxCell id="gog5IfXXjKf4Umav9ZKO-50" value="" style="endArrow=none;html=1;rounded=0;entryX=1;entryY=0.5;entryDx=0;entryDy=0;exitX=0.015;exitY=0.544;exitDx=0;exitDy=0;exitPerimeter=0;" edge="1" source="gog5IfXXjKf4Umav9ZKO-51" parent="1" target="gog5IfXXjKf4Umav9ZKO-42">
          <mxGeometry width="50" height="50" relative="1" as="geometry">
            <mxPoint x="860" y="225" as="sourcePoint" />
            <mxPoint x="690" y="260" as="targetPoint" />
          </mxGeometry>
        </mxCell>
        <mxCell id="gog5IfXXjKf4Umav9ZKO-51" value="Alamat" style="ellipse;whiteSpace=wrap;html=1;" vertex="1" parent="1">
          <mxGeometry x="750" y="230" width="90" height="50" as="geometry" />
        </mxCell>
        <mxCell id="gog5IfXXjKf4Umav9ZKO-52" value="No_Telepon" style="ellipse;whiteSpace=wrap;html=1;" vertex="1" parent="1">
          <mxGeometry x="720" y="290" width="90" height="50" as="geometry" />
        </mxCell>
        <mxCell id="gog5IfXXjKf4Umav9ZKO-53" value="" style="endArrow=none;html=1;rounded=0;exitX=0.015;exitY=0.544;exitDx=0;exitDy=0;exitPerimeter=0;" edge="1" source="gog5IfXXjKf4Umav9ZKO-52" parent="1">
          <mxGeometry width="50" height="50" relative="1" as="geometry">
            <mxPoint x="810" y="285" as="sourcePoint" />
            <mxPoint x="700" y="200" as="targetPoint" />
          </mxGeometry>
        </mxCell>
        <mxCell id="gog5IfXXjKf4Umav9ZKO-54" value="Transaksi" style="rounded=0;whiteSpace=wrap;html=1;" vertex="1" parent="1">
          <mxGeometry x="647.5" y="605" width="120" height="60" as="geometry" />
        </mxCell>
        <mxCell id="gog5IfXXjKf4Umav9ZKO-55" value="&lt;span data-end=&quot;658&quot; data-start=&quot;642&quot;&gt;ID_Pelanggan [FK]&lt;/span&gt;" style="ellipse;whiteSpace=wrap;html=1;" vertex="1" parent="1">
          <mxGeometry x="807.5" y="465" width="90" height="50" as="geometry" />
        </mxCell>
        <mxCell id="gog5IfXXjKf4Umav9ZKO-56" value="&lt;span data-end=&quot;693&quot; data-start=&quot;680&quot;&gt;No_Polisi [FK]&lt;/span&gt;" style="ellipse;whiteSpace=wrap;html=1;" vertex="1" parent="1">
          <mxGeometry x="822.5" y="520" width="90" height="50" as="geometry" />
        </mxCell>
        <mxCell id="gog5IfXXjKf4Umav9ZKO-57" value="" style="endArrow=none;html=1;rounded=0;entryX=1;entryY=0.5;entryDx=0;entryDy=0;exitX=0;exitY=0.5;exitDx=0;exitDy=0;" edge="1" source="gog5IfXXjKf4Umav9ZKO-60" target="gog5IfXXjKf4Umav9ZKO-54" parent="1">
          <mxGeometry width="50" height="50" relative="1" as="geometry">
            <mxPoint x="1047.5" y="570" as="sourcePoint" />
            <mxPoint x="1077.5" y="635" as="targetPoint" />
          </mxGeometry>
        </mxCell>
        <mxCell id="gog5IfXXjKf4Umav9ZKO-58" value="" style="endArrow=none;html=1;rounded=0;entryX=1;entryY=0.5;entryDx=0;entryDy=0;exitX=0.015;exitY=0.544;exitDx=0;exitDy=0;exitPerimeter=0;" edge="1" source="gog5IfXXjKf4Umav9ZKO-56" target="gog5IfXXjKf4Umav9ZKO-54" parent="1">
          <mxGeometry width="50" height="50" relative="1" as="geometry">
            <mxPoint x="1057.5" y="600" as="sourcePoint" />
            <mxPoint x="1077.5" y="635" as="targetPoint" />
          </mxGeometry>
        </mxCell>
        <mxCell id="gog5IfXXjKf4Umav9ZKO-59" value="" style="endArrow=none;html=1;rounded=0;entryX=1;entryY=0.5;entryDx=0;entryDy=0;exitX=-0.001;exitY=0.466;exitDx=0;exitDy=0;exitPerimeter=0;" edge="1" source="gog5IfXXjKf4Umav9ZKO-55" target="gog5IfXXjKf4Umav9ZKO-54" parent="1">
          <mxGeometry width="50" height="50" relative="1" as="geometry">
            <mxPoint x="937.5" y="635" as="sourcePoint" />
            <mxPoint x="1077.5" y="635" as="targetPoint" />
          </mxGeometry>
        </mxCell>
        <mxCell id="gog5IfXXjKf4Umav9ZKO-60" value="&lt;span data-end=&quot;632&quot; data-start=&quot;616&quot;&gt;ID_Transaksi&lt;/span&gt;" style="ellipse;whiteSpace=wrap;html=1;align=center;fontStyle=4;" vertex="1" parent="1">
          <mxGeometry x="787.5" y="420" width="100" height="40" as="geometry" />
        </mxCell>
        <mxCell id="gog5IfXXjKf4Umav9ZKO-61" value="" style="endArrow=none;html=1;rounded=0;entryX=1;entryY=0.5;entryDx=0;entryDy=0;exitX=0.015;exitY=0.544;exitDx=0;exitDy=0;exitPerimeter=0;" edge="1" source="gog5IfXXjKf4Umav9ZKO-62" target="gog5IfXXjKf4Umav9ZKO-54" parent="1">
          <mxGeometry width="50" height="50" relative="1" as="geometry">
            <mxPoint x="1047.5" y="660" as="sourcePoint" />
            <mxPoint x="877.5" y="695" as="targetPoint" />
          </mxGeometry>
        </mxCell>
        <mxCell id="gog5IfXXjKf4Umav9ZKO-62" value="&lt;span data-end=&quot;724&quot; data-start=&quot;711&quot;&gt;ID_Cabang [FK]&lt;/span&gt;" style="ellipse;whiteSpace=wrap;html=1;" vertex="1" parent="1">
          <mxGeometry x="822.5" y="575" width="90" height="50" as="geometry" />
        </mxCell>
        <mxCell id="gog5IfXXjKf4Umav9ZKO-63" value="Tanggal_Mulai_Sewa" style="ellipse;whiteSpace=wrap;html=1;" vertex="1" parent="1">
          <mxGeometry x="812.5" y="635" width="130" height="50" as="geometry" />
        </mxCell>
        <mxCell id="gog5IfXXjKf4Umav9ZKO-64" value="" style="endArrow=none;html=1;rounded=0;exitX=0;exitY=0.5;exitDx=0;exitDy=0;" edge="1" source="gog5IfXXjKf4Umav9ZKO-63" parent="1">
          <mxGeometry width="50" height="50" relative="1" as="geometry">
            <mxPoint x="866.5" y="750" as="sourcePoint" />
            <mxPoint x="767.5" y="635" as="targetPoint" />
          </mxGeometry>
        </mxCell>
        <mxCell id="gog5IfXXjKf4Umav9ZKO-65" value="Tanggal_Pengembalian" style="ellipse;whiteSpace=wrap;html=1;" vertex="1" parent="1">
          <mxGeometry x="800" y="695" width="135" height="50" as="geometry" />
        </mxCell>
        <mxCell id="gog5IfXXjKf4Umav9ZKO-67" value="Total_Biaya" style="ellipse;whiteSpace=wrap;html=1;" vertex="1" parent="1">
          <mxGeometry x="812.5" y="755" width="90" height="50" as="geometry" />
        </mxCell>
        <mxCell id="gog5IfXXjKf4Umav9ZKO-68" value="Denda" style="ellipse;whiteSpace=wrap;html=1;" vertex="1" parent="1">
          <mxGeometry x="787.5" y="815" width="90" height="50" as="geometry" />
        </mxCell>
        <mxCell id="gog5IfXXjKf4Umav9ZKO-70" value="" style="endArrow=none;html=1;rounded=0;exitX=0;exitY=0.5;exitDx=0;exitDy=0;" edge="1" parent="1" source="gog5IfXXjKf4Umav9ZKO-68">
          <mxGeometry width="50" height="50" relative="1" as="geometry">
            <mxPoint x="778.5" y="872" as="sourcePoint" />
            <mxPoint x="767.5" y="635" as="targetPoint" />
          </mxGeometry>
        </mxCell>
        <mxCell id="gog5IfXXjKf4Umav9ZKO-71" value="" style="endArrow=none;html=1;rounded=0;exitX=0;exitY=0.5;exitDx=0;exitDy=0;" edge="1" parent="1" source="gog5IfXXjKf4Umav9ZKO-67">
          <mxGeometry width="50" height="50" relative="1" as="geometry">
            <mxPoint x="788.5" y="882" as="sourcePoint" />
            <mxPoint x="767.5" y="635" as="targetPoint" />
          </mxGeometry>
        </mxCell>
        <mxCell id="gog5IfXXjKf4Umav9ZKO-72" value="" style="endArrow=none;html=1;rounded=0;exitX=0.007;exitY=0.545;exitDx=0;exitDy=0;exitPerimeter=0;entryX=1;entryY=0.539;entryDx=0;entryDy=0;entryPerimeter=0;" edge="1" parent="1" source="gog5IfXXjKf4Umav9ZKO-65" target="gog5IfXXjKf4Umav9ZKO-54">
          <mxGeometry width="50" height="50" relative="1" as="geometry">
            <mxPoint x="798.5" y="892" as="sourcePoint" />
            <mxPoint x="777.5" y="775" as="targetPoint" />
          </mxGeometry>
        </mxCell>
        <mxCell id="gog5IfXXjKf4Umav9ZKO-78" value="" style="edgeStyle=entityRelationEdgeStyle;fontSize=12;html=1;endArrow=ERoneToMany;rounded=0;entryX=1;entryY=0.5;entryDx=0;entryDy=0;exitX=1;exitY=0.5;exitDx=0;exitDy=0;" edge="1" parent="1" source="gog5IfXXjKf4Umav9ZKO-2" target="gog5IfXXjKf4Umav9ZKO-15">
          <mxGeometry width="100" height="100" relative="1" as="geometry">
            <mxPoint x="180" y="380" as="sourcePoint" />
            <mxPoint x="280" y="280" as="targetPoint" />
          </mxGeometry>
        </mxCell>
        <mxCell id="gog5IfXXjKf4Umav9ZKO-81" value="" style="edgeStyle=entityRelationEdgeStyle;fontSize=12;html=1;endArrow=ERoneToMany;rounded=0;entryX=0;entryY=0.5;entryDx=0;entryDy=0;" edge="1" parent="1" target="gog5IfXXjKf4Umav9ZKO-54">
          <mxGeometry width="100" height="100" relative="1" as="geometry">
            <mxPoint x="230" y="210" as="sourcePoint" />
            <mxPoint x="430" y="615" as="targetPoint" />
            <Array as="points">
              <mxPoint x="310" y="220" />
              <mxPoint x="410" y="360" />
              <mxPoint x="410" y="380" />
              <mxPoint x="420" y="320" />
            </Array>
          </mxGeometry>
        </mxCell>
        <mxCell id="gog5IfXXjKf4Umav9ZKO-80" value="Memiliki" style="strokeWidth=2;html=1;shape=mxgraph.flowchart.decision;whiteSpace=wrap;" vertex="1" parent="1">
          <mxGeometry x="340" y="320" width="100" height="100" as="geometry" />
        </mxCell>
        <mxCell id="gog5IfXXjKf4Umav9ZKO-87" value="" style="edgeStyle=entityRelationEdgeStyle;fontSize=12;html=1;endArrow=ERoneToMany;rounded=0;entryX=0;entryY=0.25;entryDx=0;entryDy=0;exitX=0.25;exitY=1;exitDx=0;exitDy=0;" edge="1" parent="1" source="gog5IfXXjKf4Umav9ZKO-42" target="gog5IfXXjKf4Umav9ZKO-54">
          <mxGeometry width="100" height="100" relative="1" as="geometry">
            <mxPoint x="530" y="200" as="sourcePoint" />
            <mxPoint x="587.5" y="620" as="targetPoint" />
            <Array as="points">
              <mxPoint x="580" y="190" />
            </Array>
          </mxGeometry>
        </mxCell>
        <mxCell id="gog5IfXXjKf4Umav9ZKO-88" value="Memiliki" style="strokeWidth=2;html=1;shape=mxgraph.flowchart.decision;whiteSpace=wrap;" vertex="1" parent="1">
          <mxGeometry x="580" y="355" width="100" height="100" as="geometry" />
        </mxCell>
        <mxCell id="gog5IfXXjKf4Umav9ZKO-90" value="" style="edgeStyle=entityRelationEdgeStyle;fontSize=12;html=1;endArrow=ERoneToMany;rounded=0;entryX=0;entryY=0.75;entryDx=0;entryDy=0;exitX=1;exitY=0.75;exitDx=0;exitDy=0;" edge="1" parent="1" source="gog5IfXXjKf4Umav9ZKO-15" target="gog5IfXXjKf4Umav9ZKO-54">
          <mxGeometry width="100" height="100" relative="1" as="geometry">
            <mxPoint x="384" y="530" as="sourcePoint" />
            <mxPoint x="384" y="880" as="targetPoint" />
            <Array as="points">
              <mxPoint x="530" y="540" />
            </Array>
          </mxGeometry>
        </mxCell>
        <mxCell id="gog5IfXXjKf4Umav9ZKO-91" value="Memiliki" style="strokeWidth=2;html=1;shape=mxgraph.flowchart.decision;whiteSpace=wrap;" vertex="1" parent="1">
          <mxGeometry x="364" y="550" width="100" height="100" as="geometry" />
        </mxCell>
        <mxCell id="gog5IfXXjKf4Umav9ZKO-77" value="Memiliki" style="strokeWidth=2;html=1;shape=mxgraph.flowchart.decision;whiteSpace=wrap;" vertex="1" parent="1">
          <mxGeometry x="210" y="320" width="100" height="100" as="geometry" />
        </mxCell>
      </root>
    </mxGraphModel>
  </diagram>
</mxfile>
